<?xml version="1.0" encoding="utf-8"?>
<!-- Generator: Adobe Illustrator 25.1.0, SVG Export Plug-In . SVG Version: 6.00 Build 0)  -->
<svg version="1.1" id="Layer_1" xmlns="http://www.w3.org/2000/svg" xmlns:xlink="http://www.w3.org/1999/xlink" x="0px" y="0px"
	 viewBox="0 0 241.83 241.83" style="enable-background:new 0 0 241.83 241.83;" xml:space="preserve">
<style type="text/css">
	.st0{fill:#BE1E2D;}
	.st1{fill:none;stroke:#FFFFFF;stroke-width:15;stroke-miterlimit:10;}
	.st2{display:none;fill:#47C2CB;stroke:#27AAE1;stroke-miterlimit:10;}
	.st3{display:none;}
	.st4{fill:none;stroke:#FFFFFF;stroke-miterlimit:10;}
	.st5{fill:none;stroke:#FFFFFF;stroke-width:4;stroke-miterlimit:10;}
	.st6{fill:none;stroke:#FFFFFF;stroke-width:0.75;stroke-miterlimit:10;}
</style>
<rect x="35.42" y="35.42" transform="matrix(0.7071 -0.7071 0.7071 0.7071 -50.0847 120.9153)" class="st0" width="171" height="171"/>
<g>
	<g>
		<path class="st1" d="M65.47,74.39c0.58,13.07,1.16,26.15,1.73,39.22c0.72,16.39,1.45,32.77,2.17,49.16"/>
		<path class="st1" d="M58.49,76.76c30.08-6.77,56.08,2.16,59.98,11.99c4,10.06-12.36,28.16-44.64,32.96"/>
		<line class="st1" x1="119.07" y1="165.9" x2="74.64" y2="124.83"/>
		<line class="st1" x1="110.74" y1="162.77" x2="190.46" y2="162.77"/>
		<line class="st1" x1="142.57" y1="113.67" x2="174.56" y2="164.49"/>
		<line class="st1" x1="142.96" y1="118.58" x2="177.65" y2="72.94"/>
		<line class="st1" x1="153.67" y1="74.39" x2="191.33" y2="74.39"/>
		<line class="st1" x1="46.64" y1="74.39" x2="78.02" y2="74.39"/>
		<line class="st1" x1="46.64" y1="162.77" x2="88.78" y2="162.77"/>
		<line class="st1" x1="58.49" y1="74.39" x2="58.49" y2="74.39"/>
	</g>
</g>
<rect x="-80.05" y="-435.44" transform="matrix(-0.7071 0.7071 -0.7071 -0.7071 -212.172 -585.6118)" class="st2" width="190.51" height="197.39"/>
<rect x="-48.52" y="-486.16" transform="matrix(0.7071 -0.7071 0.7071 0.7071 291.8061 -90.4427)" class="st2" width="170.51" height="177.39"/>
<rect x="179.64" y="-425.44" transform="matrix(0.7071 -0.7071 0.7071 0.7071 315.7014 88.6742)" class="st2" width="170.51" height="177.39"/>
<g id="Layer_3" class="st3">
	<g id="Layer_2">
	</g>
</g>
<line class="st4" x1="137.91" y1="113.91" x2="136.72" y2="117.66"/>
<line class="st5" x1="139.61" y1="113.74" x2="136.72" y2="117.66"/>
<line class="st6" x1="135.61" y1="116.75" x2="140.72" y2="124.58"/>
</svg>
