<?xml version="1.0" encoding="utf-8"?>
<!-- Generator: Adobe Illustrator 25.1.0, SVG Export Plug-In . SVG Version: 6.00 Build 0)  -->
<svg version="1.1" id="Layer_1" xmlns="http://www.w3.org/2000/svg" xmlns:xlink="http://www.w3.org/1999/xlink" x="0px" y="0px"
	 viewBox="0 0 595.28 841.89" style="enable-background:new 0 0 595.28 841.89;" xml:space="preserve">
<style type="text/css">
	.st0{fill:#BE1E2D;}
	.st1{fill:none;stroke:#FFFFFF;stroke-width:15;stroke-miterlimit:10;}
	.st2{display:none;fill:#47C2CB;stroke:#27AAE1;stroke-miterlimit:10;}
	.st3{display:none;}
	.st4{fill:none;stroke:#FFFFFF;stroke-miterlimit:10;}
	.st5{fill:none;stroke:#FFFFFF;stroke-width:4;stroke-miterlimit:10;}
	.st6{fill:none;stroke:#FFFFFF;stroke-width:0.75;stroke-miterlimit:10;}
</style>
<rect x="194.3" y="206.99" transform="matrix(0.7071 -0.7071 0.7071 0.7071 -124.8723 283.5137)" class="st0" width="171" height="171"/>
<g>
	<g>
		<path class="st1" d="M224.35,245.96c0.58,13.07,1.16,26.15,1.73,39.22c0.72,16.39,1.45,32.77,2.17,49.16"/>
		<path class="st1" d="M217.37,248.33c30.08-6.77,56.08,2.16,59.98,11.99c4,10.06-12.36,28.16-44.64,32.96"/>
		<line class="st1" x1="277.95" y1="337.47" x2="233.52" y2="296.4"/>
		<line class="st1" x1="269.62" y1="334.35" x2="349.34" y2="334.35"/>
		<line class="st1" x1="301.45" y1="285.25" x2="333.44" y2="336.06"/>
		<line class="st1" x1="301.84" y1="290.16" x2="336.53" y2="244.52"/>
		<line class="st1" x1="312.55" y1="245.96" x2="350.21" y2="245.96"/>
		<line class="st1" x1="205.52" y1="245.96" x2="236.9" y2="245.96"/>
		<line class="st1" x1="205.52" y1="334.34" x2="247.66" y2="334.34"/>
		<line class="st1" x1="217.37" y1="245.96" x2="217.37" y2="245.96"/>
	</g>
</g>
<rect x="78.82" y="-263.87" transform="matrix(-0.7071 0.7071 -0.7071 -0.7071 180.3754 -405.0587)" class="st2" width="190.51" height="197.39"/>
<rect x="110.36" y="-314.58" transform="matrix(0.7071 -0.7071 0.7071 0.7071 217.0186 72.1557)" class="st2" width="170.51" height="177.39"/>
<rect x="338.52" y="-253.87" transform="matrix(0.7071 -0.7071 0.7071 0.7071 240.9138 251.2727)" class="st2" width="170.51" height="177.39"/>
<g id="Layer_3" class="st3">
	<g id="Layer_2">
	</g>
</g>
<line class="st4" x1="296.79" y1="285.49" x2="295.6" y2="289.23"/>
<line class="st5" x1="298.49" y1="285.32" x2="295.6" y2="289.23"/>
<line class="st6" x1="294.49" y1="288.33" x2="299.6" y2="296.16"/>
</svg>
